<svg id="alert-solid" width="24" height="24" fill="currentColor" viewBox="0 0 40 40" xmlns="http://www.w3.org/2000/svg">
  <path d="M36.4538 32.5115L21.4667 5.78914C20.8766 4.73695 19.1234 4.73695 18.5333 5.78914L3.54621 32.5115C3.25962 33.0292 3.25962 33.6639 3.56307 34.1816C3.86652 34.6827 4.42285 35 5.01289 35H34.9871C35.5771 35 36.1335 34.6827 36.4369 34.1816C36.7404 33.6639 36.7404 33.0292 36.4538 32.5115Z" fill="#FEC941"/>
  <path d="M21.6667 23.3333C21.6667 24.25 20.9167 25 20 25C19.0833 25 18.3333 24.25 18.3333 23.3333V16.6667C18.3333 15.75 19.0833 15 20 15C20.9167 15 21.6667 15.75 21.6667 16.6667V23.3333Z" fill="#0D1C3D"/>
  <path d="M20 30C19.0833 30 18.3333 29.25 18.3333 28.3333C18.3333 27.4167 19.0833 26.6667 20 26.6667C20.9167 26.6667 21.6667 27.4167 21.6667 28.3333C21.6667 29.25 20.9167 30 20 30Z" fill="#0D1C3D"/>
  <path fill-rule="evenodd" clip-rule="evenodd" d="M18.5333 5.78914L3.54621 32.5115C3.25962 33.0292 3.25962 33.6639 3.56307 34.1816C3.86652 34.6827 4.42285 35 5.01289 35H34.9871C35.5771 35 36.1335 34.6827 36.4369 34.1816C36.7404 33.6639 36.7404 33.0292 36.4538 32.5115L21.4667 5.78914C20.8766 4.73695 19.1234 4.73695 18.5333 5.78914ZM34.9956 33.3186C34.9954 33.3183 34.9958 33.319 34.9956 33.3186L20.0505 6.67126C20.036 6.66849 20.0188 6.66667 20 6.66667C19.9812 6.66667 19.964 6.66849 19.9495 6.67126L5.00439 33.3186C5.00419 33.319 5.00457 33.3183 5.00439 33.3186C5.00291 33.3215 5.00137 33.3253 5.00078 33.3279C5.0005 33.3277 5.00104 33.328 5.00078 33.3279C5.00775 33.3318 5.01309 33.3332 5.01404 33.3333H34.986C34.9869 33.3332 34.9914 33.3323 34.9984 33.3283C34.9981 33.3285 34.9987 33.3282 34.9984 33.3283C34.9978 33.3258 34.9971 33.3215 34.9956 33.3186Z" fill="black"/>
</svg>

