<svg xmlns="http://www.w3.org/2000/svg" width="30" height="30" viewBox="0 0 30 30" fill="none">
    <path d="M27.5 15.0673C27.4994 12.677 26.8144 10.3369 25.5259 8.32406C24.2375
    6.31124 22.3996 4.71 20.2299 3.70991C18.0602 2.70981 15.6496 2.35276 13.2834
    2.68101C10.9172 3.00926 8.6946 4.00907 6.87866 5.56208C5.06271 7.11508 3.72952
    9.15623 3.03692 11.4439C2.34432 13.7315 2.32132 16.1698 2.97064 18.4701C3.61996
    20.7705 4.9144 22.8364 6.70073 24.4235C8.48705 26.0105 10.6904 27.0521 13.05
    27.425V18.6695H9.875V15.0673H13.05V12.3156C12.9801 11.6725 13.0527 11.0219 13.2627
    10.41C13.4726 9.79822 13.8147 9.2402 14.2646 8.77567C14.7145 8.31115 15.2612 7.95154
    15.8658 7.72242C16.4703 7.49329 17.1179 7.40029 17.7625 7.45002C18.7003 7.46227 19.636 7.54169 20.5625
    7.68767V10.7646H18.9875C18.7193 10.73 18.4468 10.756 18.1899 10.8405C17.933 10.9251 17.6982 11.066 17.5029
    11.2531C17.3075 11.4402 17.1565 11.6687 17.0608 11.9218C16.9651 12.1749 16.9273 12.4462
    16.95 12.7158V15.0673H20.425L19.8625 18.682H16.95V27.4375C19.8934 26.9723 22.574 25.4703
    24.5083 23.2022C26.4427 20.934 27.5037 18.049 27.5 15.0673Z" fill="white"/>
</svg>