<svg xmlns="http://www.w3.org/2000/svg" width="30" height="30" viewBox="0 0 30 30" fill="none">
    <path fill-rule="evenodd" clip-rule="evenodd" d="M15 28C22.1797 28 28 22.1797 28 15C28 7.82032 22.1797 2 15 2C7.82032 2 2 7.82032 2 15C2 22.1797 7.82032 28 15 28ZM10.8735 8.93323H19.107C20.184 8.93323 21.057 9.80627 21.057 10.8832V19.1168C21.057 20.1937 20.184 21.0668 19.107 21.0668H10.8735C9.79651 21.0668 8.92347 20.1937 8.92347 19.1168V10.8832C8.92347 9.80627 9.79651 8.93323 10.8735 8.93323ZM6.97347 10.8832C6.97347 8.72931 8.71955 6.98323 10.8735 6.98323H19.107C21.2609 6.98323 23.007 8.72931 23.007 10.8832V19.1168C23.007 21.2707 21.2609 23.0168 19.107 23.0168H10.8735C8.71955 23.0168 6.97347 21.2707 6.97347 19.1168V10.8832ZM14.9902 17.1668C16.1869 17.1668 17.157 16.1967 17.157 15C17.157 13.8034 16.1869 12.8333 14.9902 12.8333C13.7936 12.8333 12.8235 13.8034 12.8235 15C12.8235 16.1967 13.7936 17.1668 14.9902 17.1668ZM14.9902 19.1168C17.2639 19.1168 19.107 17.2737 19.107 15C19.107 12.7264 17.2639 10.8833 14.9902 10.8833C12.7167 10.8833 10.8735 12.7264 10.8735 15C10.8735 17.2737 12.7167 19.1168 14.9902 19.1168ZM19.312 11.6135C19.8506 11.6135 20.287 11.177 20.287 10.6385C20.287 10.1001 19.8506 9.66353 19.312 9.66353C18.7736 9.66353 18.337 10.1001 18.337 10.6385C18.337 11.177 18.7736 11.6135 19.312 11.6135Z" fill="white"/>
</svg>