<svg width="374" height="42" viewBox="0 0 374 42" fill="none" xmlns="http://www.w3.org/2000/svg">
<g clip-path="url(#clip0_17587_22476)">
<path d="M27.9085 12.6196C27.4011 12.177 26.8168 11.8319 26.1849 11.6016L25.2168 31.3704L30.1279 17.7098C30.2747 16.7378 30.1442 15.744 29.7515 14.8432C29.3587 13.9425 28.7198 13.1716 27.9085 12.6196Z" fill="white"/>
<path d="M19.8096 11.4316L22.6901 31.1768L25.4998 11.4316C23.6636 10.752 21.6458 10.752 19.8096 11.4316Z" fill="white"/>
<path d="M17.4255 12.5962C16.6163 13.1501 15.9789 13.9213 15.5864 14.8215C15.1939 15.7217 15.0621 16.7145 15.2061 17.6864L20.1172 31.347L19.1491 11.5781C18.5171 11.8085 17.9329 12.1536 17.4255 12.5962Z" fill="white"/>
<path d="M7.55566 14.461C10.814 20.2141 14.1668 26.2987 17.4251 31.9097C16.2682 27.1747 15.064 19.054 13.4112 16.8049C12.682 15.9874 11.7738 15.3503 10.7579 14.9437C9.74194 14.537 8.64591 14.3718 7.55566 14.461Z" fill="white"/>
<path d="M1.74707 17.3562L15.1346 32.9345L6.84707 14.5625C5.83742 14.5915 4.84895 14.8597 3.96253 15.3453C3.0761 15.8309 2.31692 16.5199 1.74707 17.3562Z" fill="white"/>
<path d="M29.7741 21.5638L27.5547 32.2413C30.4116 27.2459 33.245 22.3451 36.0075 17.3496C34.6557 17.2915 33.3209 17.6694 32.199 18.4279C31.0771 19.1863 30.2273 20.2854 29.7741 21.5638Z" fill="white"/>
<path d="M36.8099 17.3527L29.7266 33.1678L42.146 19.5545C41.4534 18.8418 40.6228 18.2789 39.7051 17.9002C38.7874 17.5215 37.8021 17.3352 36.8099 17.3527Z" fill="white"/>
<path d="M0.000104651 24.4091C4.36816 27.7947 8.68899 31.2513 13.0807 34.6132L1.2751 17.8984C0.239829 19.9024 -0.20255 22.1614 0.000104651 24.4091Z" fill="white"/>
<path d="M43.681 21.5223C43.4289 20.9794 43.0764 20.4893 42.6421 20.0781L31.9463 34.8042C36.1963 31.6317 40.3046 28.3882 44.3893 25.1446C44.4757 23.8957 44.2314 22.6461 43.681 21.5223Z" fill="white"/>
<path d="M0 31.2001L11.4042 36.4797C7.62639 32.6916 3.80139 29.022 0 25.2812V31.2001Z" fill="white"/>
<path d="M44.3887 31.6089V26.2109L33.6221 36.6991C37.2818 35.0182 40.6582 33.3609 44.3887 31.6089Z" fill="white"/>
<path d="M0 36.4585C3.42361 37.2161 7.08333 38.1868 10.2708 38.8261L0 32.0312V36.4585Z" fill="white"/>
<path d="M44.3887 36.7682V32.625C41.1539 34.6848 37.8248 36.8155 34.8262 38.97L44.3887 36.7682Z" fill="white"/>
<path d="M0.0234375 41.6214H10.0582L0.0234375 37.3125V41.6214Z" fill="white"/>
<path d="M44.3885 41.6176V37.6875C41.083 39.108 38.226 40.2918 35.1094 41.6176H44.3885Z" fill="white"/>
<path d="M40.9186 12.1203C40.9624 11.5292 40.884 10.9353 40.6885 10.3759C40.493 9.81656 40.1845 9.30364 39.7823 8.86925C39.3801 8.43487 38.8928 8.08838 38.3509 7.85143C37.8091 7.61448 37.2243 7.49219 36.6332 7.49219C36.042 7.49219 35.4572 7.61448 34.9154 7.85143C34.3735 8.08838 33.8863 8.43487 33.484 8.86925C33.0818 9.30364 32.7733 9.81656 32.5778 10.3759C32.3823 10.9353 32.304 11.5292 32.3477 12.1203C32.2769 17.6366 41.1311 17.9444 40.9186 12.1203Z" fill="white"/>
<path d="M12.2545 8.99638C12.5379 2.9355 3.18787 3.17226 3.54204 8.99638C3.21149 15.0099 12.8212 15.1046 12.2545 8.99638Z" fill="white"/>
<path d="M22.6905 10.1553C23.3423 10.1883 23.9939 10.0855 24.6041 9.85334C25.2143 9.6212 25.7699 9.26474 26.2358 8.80646C26.7017 8.34819 27.0678 7.79805 27.311 7.19076C27.5542 6.58348 27.6693 5.93224 27.6489 5.27814C27.7288 4.59383 27.6588 3.90026 27.4439 3.24586C27.2289 2.59146 26.8741 1.99198 26.4042 1.48926C25.9343 0.986547 25.3607 0.592709 24.7234 0.335237C24.086 0.0777638 23.4003 -0.0371408 22.7141 -0.00145744C22.0296 -0.0305433 21.3469 0.0900962 20.7135 0.352087C20.0801 0.614079 19.5111 1.01115 19.0461 1.51573C18.5811 2.02031 18.2311 2.62032 18.0205 3.27411C17.81 3.9279 17.7438 4.61981 17.8266 5.30181C17.7885 5.95119 17.8884 6.60127 18.1197 7.20902C18.351 7.81677 18.7084 8.36833 19.1682 8.82718C19.6281 9.28603 20.1799 9.6417 20.7871 9.87065C21.3943 10.0996 22.0431 10.1966 22.6905 10.1553Z" fill="white"/>
<path d="M100.607 17.6875H96.5225V41.3865H100.607V17.6875Z" fill="white"/>
<path d="M82.0491 17.6875L75.131 37.8825L68.4727 29.2647L77.4685 17.7112H72.7463L64.388 28.9569V17.6875H60.2324V41.3628H64.3171V29.7146L72.9588 41.4102H77.9171L80.113 34.568H88.7783L91.1394 41.3865H95.413L87.2671 17.7112L82.0491 17.6875ZM81.1046 31.2535L84.2449 21.4282L87.5033 31.2535H81.1046Z" fill="white"/>
<path d="M232.994 34.8521L228.91 17.6875H221.826V41.3628H225.84V21.1678L231.035 41.3628H235.119L240.196 21.3098V41.4812H244.162V17.8059H237.079L232.994 34.8521Z" fill="white"/>
<path d="M254.433 17.6641L246.264 41.3394H250.278L252.473 34.4972H261.139L263.5 41.3394H267.773L259.58 17.6641H254.433ZM253.489 31.23L256.629 21.3101L259.911 31.1116L253.489 31.23Z" fill="white"/>
<path d="M284.207 35.9651L274.762 17.6641H269.379V41.3394H273.228V23.5119L282.483 41.363H288.055V17.6877H284.112L284.207 35.9651Z" fill="white"/>
<path d="M361.51 37.8828H351.806V31.23H358.889V27.7971H351.806V21.097H360.684V17.6641H347.792V41.3394H361.534L361.51 37.8828Z" fill="white"/>
<path d="M324.346 17.6641H323.614V36.1545L314.17 17.6641H308.834V37.8828H296.438V31.23H303.521V27.7971H296.438V21.097H305.316V17.6641H292.4V41.3394H312.706V23.3225L321.962 41.363H327.534V21.3101H334.617V41.4341H338.725V21.3101H345.809V17.6641H324.346Z" fill="white"/>
<path d="M215.853 29.4543C216.589 28.8369 217.182 28.0658 217.589 27.1947C217.997 26.3236 218.21 25.3738 218.214 24.4115C218.235 23.4649 218.05 22.525 217.671 21.6579C217.291 20.7909 216.727 20.0175 216.018 19.3923C214.026 17.9893 211.588 17.3737 209.171 17.664H202.324V27.6787V37.8827H189.715V31.23H196.799V27.797H189.715V21.0969H198.593V17.664H185.678V41.3393H206.29V31.301H208.321C210.186 34.2604 214.176 41.4104 214.176 41.4104H219.04L212.689 30.9695C213.856 30.7463 214.946 30.2243 215.853 29.4543ZM206.408 27.8444V21.1443H209.856C212.949 21.1443 214.2 22.3754 214.2 24.4352C214.2 26.4949 212.972 27.8207 209.856 27.8207L206.408 27.8444Z" fill="white"/>
<path d="M151.465 29.4474C152.201 28.8301 152.794 28.0589 153.202 27.1878C153.61 26.3167 153.823 25.3669 153.826 24.4046C153.848 23.458 153.662 22.5181 153.283 21.651C152.904 20.784 152.34 20.0106 151.63 19.3854C149.64 17.9803 147.2 17.3646 144.783 17.6571H137.936V27.6718V37.8758H125.328V31.2231H132.411V27.7902H125.328V21.09H134.205V17.6571H121.267V41.3324H141.903V31.2941H144.028C145.893 34.2535 149.883 41.4035 149.883 41.4035H154.653L148.301 30.9626C149.469 30.7394 150.558 30.2174 151.465 29.4474ZM142.021 27.8375V21.1374H145.468C148.561 21.1374 149.812 22.3685 149.812 24.4283C149.812 26.488 148.585 27.8138 145.468 27.8138L142.021 27.8375Z" fill="white"/>
<path d="M180.955 19.4564C178.97 18.0367 176.531 17.4041 174.108 17.6807H167.261V31.6492V41.4034H171.369V31.6255H174.132C176.557 31.8896 178.992 31.2305 180.955 29.7788C181.667 29.1242 182.233 28.3259 182.616 27.4364C182.998 26.5468 183.189 25.5862 183.175 24.6176C183.192 23.6486 183.003 22.687 182.62 21.797C182.237 20.907 181.67 20.1091 180.955 19.4564ZM174.722 28.1689H171.345V21.0663H174.722C177.791 21.0663 179.066 22.4395 179.066 24.5229C179.066 26.6063 177.72 28.1689 174.722 28.1689Z" fill="white"/>
<path d="M112.53 27.5563C109.319 26.3726 107.808 25.4729 107.808 23.6026C107.808 22.182 109.249 20.5484 112.082 20.5484C113.852 20.5701 115.595 20.9909 117.182 21.7796V18.394C115.601 17.6755 113.888 17.2964 112.153 17.2812C107.1 17.2813 103.605 20.146 103.605 24.005C103.605 27.438 106.226 29.4977 110.193 30.8709C113.262 31.9599 114.585 33.049 114.585 34.8957C114.585 36.7424 112.885 38.3049 110.075 38.3049C107.814 38.2951 105.593 37.6998 103.629 36.5766V40.2463C105.552 41.1711 107.659 41.6486 109.792 41.6431C115.907 41.6431 118.787 38.3523 118.787 34.5406C118.787 30.7288 116.662 29.0952 112.53 27.5563Z" fill="white"/>
<path d="M365.264 37.1939C365.282 36.4256 365.526 35.6798 365.966 35.05C366.405 34.4202 367.02 33.9342 367.733 33.653C368.446 33.3718 369.226 33.3078 369.976 33.4691C370.725 33.6304 371.41 34.0097 371.946 34.5596C372.481 35.1095 372.843 35.8055 372.986 36.5606C373.129 37.3157 373.046 38.0962 372.749 38.8045C372.451 39.5129 371.952 40.1174 371.314 40.5427C370.675 40.9679 369.926 41.1948 369.159 41.195C368.639 41.1984 368.123 41.0966 367.642 40.8955C367.162 40.6944 366.727 40.3983 366.363 40.0248C366 39.6513 365.715 39.2081 365.526 38.7217C365.337 38.2353 365.248 37.7156 365.264 37.1939ZM369.159 41.9289C370.087 41.901 370.985 41.5998 371.743 41.0628C372.501 40.5258 373.084 39.7769 373.42 38.9096C373.756 38.0423 373.829 37.0951 373.631 36.1861C373.433 35.2771 372.973 34.4468 372.307 33.7987C371.641 33.1506 370.8 32.7136 369.888 32.5421C368.976 32.3706 368.034 32.4723 367.179 32.8345C366.325 33.1967 365.595 33.8033 365.083 34.5786C364.57 35.3539 364.296 36.2635 364.295 37.1939C364.286 37.8338 364.405 38.469 364.647 39.0613C364.889 39.6536 365.248 40.1905 365.703 40.6397C366.157 41.0889 366.698 41.441 367.292 41.6748C367.886 41.9086 368.521 42.0192 369.159 42V41.9289ZM368.144 37.5016H369.112L370.576 39.8692H371.521L369.939 37.5016C370.134 37.5019 370.327 37.4623 370.507 37.3853C370.686 37.3084 370.848 37.1956 370.983 37.0539C371.118 36.9121 371.222 36.7444 371.29 36.5609C371.358 36.3774 371.388 36.182 371.379 35.9864C371.379 34.8974 370.741 34.4239 369.419 34.4239H367.318V39.9639H368.144V37.5016ZM368.144 36.7914V35.0868H369.277C369.868 35.0868 370.482 35.2051 370.482 35.8917C370.482 36.5783 369.844 36.7914 369.136 36.7914H368.144Z" fill="white"/>
</g>
<defs>
<clipPath id="clip0_17587_22476">
<rect width="374" height="42" fill="white"/>
</clipPath>
</defs>
</svg>

