<svg xmlns="http://www.w3.org/2000/svg" width="30" height="30" viewBox="0 0 30 30" fill="none">
    <path d="M15 2.5C8.125 2.5 2.5 8.125 2.5 15C2.5 21.875 8.125 27.5 15 27.5C21.875 27.5 27.5 21.875 27.5 15C27.5 8.125 21.875 2.5 15 2.5ZM11.875 20.875H9V12.375H11.875V20.875ZM10.375 11.25C9.5 11.25 8.75 10.625 8.75 9.75C8.75 8.875 9.5 8.25 10.375 8.25C11.25 8.25 12 8.875 12 9.75C12 10.625 11.25 11.25 10.375 11.25ZM22 20.875H19.125V15.875C19.125 15.125 18.5 14.375 17.625 14.375C16.875 14.375 16.125 15 16.125 15.875V20.875H13.25V12.375H16.25V13.5C16.625 12.75 17.5 12.125 19.125 12.125C20.75 12.125 22 13.375 22 15V20.875Z" fill="white"/>
</svg>